<?xml version="1.0" encoding="iso-8859-1"?>
<!-- Generator: Adobe Illustrator 19.0.0, SVG Export Plug-In . SVG Version: 6.00 Build 0)  -->
<svg version="1.1" id="Capa_1" xmlns="http://www.w3.org/2000/svg" xmlns:xlink="http://www.w3.org/1999/xlink" x="0px" y="0px"
	 viewBox="0 0 512 512" style="enable-background:new 0 0 512 512;" xml:space="preserve">
<path style="fill:#96C9EF;" d="M418.16,255.969h51.185c0.017-56.569-22.445-110.825-62.446-150.827l0,0
	c-40.001-40.001-94.258-62.463-150.827-62.446l0,0c-56.569-0.017-110.825,22.445-150.827,62.446l0,0
	c-40.001,40.001-62.463,94.258-62.446,150.827l0,0c0,117.786,95.487,213.273,213.273,213.273l0,0
	c117.786,0,213.273-95.487,213.273-213.273L418.16,255.969L418.16,255.969z M233.892,243.173l-59.102-34.124L233.892,243.173z
	 M256.072,281.562c-14.136,0-25.593-11.457-25.593-25.593c0-14.136,11.457-25.593,25.593-25.593
	c14.136,0,25.593,11.457,25.593,25.593C281.665,270.105,270.208,281.562,256.072,281.562z M278.253,243.173l103.429-59.716
	L278.253,243.173z"/>
<g>
	<path style="fill:#FFE26E;" d="M125.208,28.535c-26.668-26.668-69.902-26.668-96.57,0s-26.668,69.902,0,96.57L125.208,28.535z"/>
	<path style="fill:#FFE26E;" d="M483.506,28.535c-26.685-26.616-69.885-26.616-96.57,0l96.57,96.57
		C510.123,98.412,510.123,55.22,483.506,28.535z"/>
	<circle style="fill:#FFE26E;" cx="256.098" cy="255.926" r="25.593"/>
</g>
<g>
	<path style="fill:#231F20;" d="M489.529,22.486c-30.054-29.841-78.561-29.841-108.616,0c-0.802,0.802-1.433,1.757-1.86,2.807
		c-0.375,0.938-0.572,1.937-0.589,2.943c-0.026,0.094-0.043,0.196-0.06,0.29l0,0c0,1.118,0.222,2.218,0.648,3.25
		c0.418,1.049,1.049,1.996,1.851,2.79l42.254,42.254l-16.337,16.328c-40.931-37.835-94.616-58.846-150.349-58.863
		c-0.145-0.043-0.256-0.119-0.401-0.119c-0.145,0-0.256,0.077-0.401,0.077c-55.741,0.026-109.426,21.063-150.349,58.915
		L88.986,76.82l42.254-42.254c0.802-0.793,1.433-1.74,1.851-2.79c0.427-1.032,0.648-2.133,0.648-3.25l0,0
		c0-0.102-0.051-0.188-0.06-0.29c0.009-1.971-0.759-3.865-2.133-5.272c-0.128-0.145-0.171-0.324-0.307-0.461l0,0
		C101.245-7.5,52.61-7.5,22.607,22.495s-30.003,78.629-0.009,108.633l0,0c0.119,0.128,0.29,0.162,0.418,0.282
		c0.7,0.657,1.501,1.186,2.372,1.57c0.93,0.367,1.919,0.563,2.918,0.589c0.102,0,0.205,0.06,0.316,0.06l0,0
		c1.109-0.009,2.21-0.222,3.242-0.64c1.041-0.427,1.988-1.058,2.79-1.86l42.271-42.245l16.337,16.337
		c-83.185,89.924-77.725,230.258,12.199,313.443c7.686,7.115,15.868,13.667,24.484,19.621l-59.06,59.051
		c-3.387,3.276-3.481,8.676-0.213,12.063c3.276,3.387,8.676,3.481,12.063,0.213c0.068-0.068,0.145-0.136,0.213-0.213l61.738-61.738
		c68.827,40.155,153.932,40.155,222.759,0l61.738,61.738c3.387,3.276,8.787,3.182,12.063-0.205c3.191-3.31,3.191-8.548,0-11.858
		l-59.06-59.051c100.767-69.706,125.942-207.907,56.236-308.666c-5.938-8.582-12.472-16.729-19.553-24.398l16.354-16.337
		l42.254,42.254c0.802,0.802,1.749,1.433,2.79,1.86c1.032,0.418,2.133,0.631,3.242,0.64l0,0c0.111,0,0.213-0.06,0.316-0.06
		c0.998-0.026,1.988-0.222,2.918-0.589c0.87-0.384,1.672-0.913,2.372-1.57c0.128-0.119,0.299-0.154,0.418-0.282l0,0
		C519.362,101.082,519.345,52.558,489.529,22.486z M29.082,112.599C9.409,86.101,14.946,48.668,41.443,28.996
		c21.148-15.705,50.085-15.705,71.242,0L29.082,112.599z M460.447,247.438H418.16c-4.709,0-8.531,3.822-8.531,8.531
		c0,4.709,3.822,8.531,8.531,8.531h42.441c-4.564,106.304-89.694,191.434-195.998,195.998v-42.441c0-4.709-3.822-8.531-8.531-8.531
		c-4.709,0-8.531,3.822-8.531,8.531v42.441C141.237,455.934,56.099,370.795,51.543,264.5h42.441c4.709,0,8.531-3.822,8.531-8.531
		c0-4.709-3.822-8.531-8.531-8.531H51.697c1.937-51.143,23.051-99.684,59.145-135.974c0.136-0.119,0.307-0.162,0.435-0.29
		s0.171-0.299,0.29-0.435c36.282-36.103,84.823-57.225,135.974-59.145v42.288c0,4.709,3.822,8.531,8.531,8.531
		c4.709,0,8.531-3.822,8.531-8.531V51.594c51.151,1.919,99.692,23.042,135.974,59.145c0.119,0.136,0.162,0.307,0.29,0.435
		s0.299,0.171,0.435,0.29C437.397,147.754,458.511,196.295,460.447,247.438z M399.443,28.978
		c26.386-19.792,63.811-14.443,83.603,11.943c15.927,21.233,15.927,50.426,0,71.66L399.443,28.978z"/>
	<path style="fill:#231F20;" d="M377.407,176.069l-97.031,56.014c-13.103-13.428-34.61-13.692-48.038-0.589
		c-0.196,0.196-0.392,0.392-0.589,0.589l-52.695-30.421c-4.061-2.38-9.29-1.015-11.67,3.046c-2.38,4.061-1.015,9.29,3.046,11.67
		c0.034,0.017,0.068,0.034,0.094,0.06l52.781,30.472c-5.289,18.086,5.076,37.041,23.17,42.33c18.094,5.289,37.041-5.076,42.33-23.17
		c1.834-6.262,1.834-12.907,0-19.169l97.116-56.065c4.061-2.38,5.426-7.61,3.046-11.67c-2.363-4.027-7.516-5.409-11.576-3.105h0.017
		V176.069z M256.072,273.031c-9.427,0-17.062-7.635-17.062-17.062s7.635-17.062,17.062-17.062c9.427,0,17.062,7.635,17.062,17.062
		C273.134,265.387,265.49,273.031,256.072,273.031z"/>
</g>
<g>
</g>
<g>
</g>
<g>
</g>
<g>
</g>
<g>
</g>
<g>
</g>
<g>
</g>
<g>
</g>
<g>
</g>
<g>
</g>
<g>
</g>
<g>
</g>
<g>
</g>
<g>
</g>
<g>
</g>
</svg>
